/* XPM */
static char * chiken_xpm[] = {
"18 17 8 1",
" 	c None",
".	c #90625D",
"+	c #C58086",
"@	c #F3F2C0",
"#	c #754C60",
"$	c #D4C169",
"%	c #E8CFA6",
"&	c #C49A6C",
"                  ",
"                  ",
"                  ",
"      ...         ",
"     .+++.        ",
"    .@@@@@.       ",
"   .@@#@@#@.      ",
"   .@@@@$$@.      ",
"  .@@@@@@@@.      ",
" .@@@@@@@@@.     .",
" .%@@@&@@@%.     .",
"  .&&&%%%%.       ",
"   .$$.$$.        ",
"    .. ..         ",
"                  ",
"                  ",
"                  "};
