/* XPM */
static char * egg_xpm[] = {
"32 32 172 2",
"  	c #4E6338",
". 	c #4C6135",
"+ 	c #4B6133",
"@ 	c #647453",
"# 	c #859078",
"$ 	c #949D88",
"% 	c #858F77",
"& 	c #C0C4B4",
"* 	c #D7DACC",
"= 	c #D8DBCD",
"- 	c #627251",
"; 	c #ADB09E",
"> 	c #D2CEBF",
", 	c #E2DBCD",
"' 	c #E3DCCE",
") 	c #C9B7A5",
"! 	c #C2A793",
"~ 	c #C2A692",
"{ 	c #ADB09F",
"] 	c #DACFBD",
"^ 	c #CBB599",
"/ 	c #C1A47F",
"( 	c #C0A47E",
"_ 	c #C1A47E",
": 	c #C0A47D",
"< 	c #ADB19F",
"[ 	c #869078",
"} 	c #627351",
"| 	c #CBB699",
"1 	c #DACEA5",
"2 	c #E2DAAB",
"3 	c #E3DAAB",
"4 	c #DACEBC",
"5 	c #CFBD93",
"6 	c #E7E1B1",
"7 	c #F3F1C0",
"8 	c #F3F0C1",
"9 	c #F3F0C4",
"0 	c #F3F2C9",
"a 	c #F3F3C9",
"b 	c #F3F2C3",
"c 	c #C9B599",
"d 	c #D6CCBD",
"e 	c #CECCBF",
"f 	c #ACB09F",
"g 	c #F0EDBC",
"h 	c #F4F0C1",
"i 	c #F4ECC2",
"j 	c #F4ECCA",
"k 	c #F4F1D7",
"l 	c #F4F4D7",
"m 	c #F4F3C9",
"n 	c #D7CBA5",
"o 	c #C0AF9A",
"p 	c #BEB0A6",
"q 	c #4D6236",
"r 	c #F3EFC8",
"s 	c #F3E9C4",
"t 	c #F3E8CA",
"u 	c #F3EDD7",
"v 	c #F3F1D7",
"w 	c #F4F3C1",
"x 	c #F3F2C0",
"y 	c #E3DCB0",
"z 	c #C2AD8E",
"A 	c #BCA495",
"B 	c #D2C8BC",
"C 	c #CFCCBF",
"D 	c #ABAF9E",
"E 	c #F3F4D7",
"F 	c #F3F0D7",
"G 	c #F3E9CA",
"H 	c #F3E6C5",
"I 	c #F3EBCA",
"J 	c #F3F3C1",
"K 	c #F3F3C0",
"L 	c #ECE6B7",
"M 	c #DDCAA2",
"N 	c #CCB195",
"O 	c #BCA494",
"P 	c #485F30",
"Q 	c #939C87",
"R 	c #D8DBCC",
"S 	c #C0A37E",
"T 	c #E2D9AB",
"U 	c #F3F3D3",
"V 	c #F3F4E0",
"W 	c #F3F1E1",
"X 	c #F3ECD4",
"Y 	c #F3EBC1",
"Z 	c #F3F0C0",
"` 	c #F1EABA",
" .	c #EBD9AD",
"..	c #D4B995",
"+.	c #AC8875",
"@.	c #B29C94",
"#.	c #DEDACF",
"$.	c #4A6032",
"%.	c #F3F4E5",
"&.	c #F3F3E5",
"*.	c #F3EFC0",
"=.	c #EBD9AE",
"-.	c #D5B996",
";.	c #AC8874",
">.	c #B29C93",
",.	c #DFDACE",
"'.	c #959D88",
").	c #F3F1C8",
"!.	c #F3F3D6",
"~.	c #F3F2C8",
"{.	c #DABF9A",
"].	c #BE9F84",
"^.	c #D3C8BC",
"/.	c #D1CDBE",
"(.	c #C8B6A4",
"_.	c #CAB598",
":.	c #E7E1B2",
"<.	c #EFEDBB",
"[.	c #F3F0C3",
"}.	c #F3ECCA",
"|.	c #F0EABA",
"1.	c #E4CAA2",
"2.	c #DAC09B",
"3.	c #CCB295",
"4.	c #BBA393",
"5.	c #BDAFA5",
"6.	c #E1DBCD",
"7.	c #BEA493",
"8.	c #BDA27F",
"9.	c #E1D9AB",
"0.	c #F2F0BF",
"a.	c #F1ECBB",
"b.	c #EEE3B5",
"c.	c #EAD6AB",
"d.	c #E9D0A7",
"e.	c #E8CFA6",
"f.	c #AD8A76",
"g.	c #B39C94",
"h.	c #DED9CE",
"i.	c #E0DACE",
"j.	c #B69E93",
"k.	c #B59C7F",
"l.	c #DFD8AC",
"m.	c #EDE0B2",
"n.	c #E9D1A8",
"o.	c #AC8974",
"p.	c #B19A81",
"q.	c #DED7AC",
"r.	c #F0E9BA",
"s.	c #E8CEA6",
"t.	c #B09980",
"u.	c #DED8AC",
"v.	c #E9D0A6",
"w.	c #E9D1A7",
"x.	c #BFAE9B",
"y.	c #D3C9A5",
"z.	c #E4DFB2",
"A.	c #EFEDBC",
"B.	c #F3F1BF",
"C.	c #F2EDBC",
"D.	c #EFE4B5",
"E.	c #EBD7AC",
"F.	c #E9CFA6",
"G.	c #D3CBBD",
"H.	c #C5B695",
"I.	c #BFA084",
"J.	c #DBD0A6",
"K.	c #D7C19C",
"L.	c #D5B995",
"M.	c #B0967E",
"N.	c #AE8E78",
"O.	c #AD8975",
"                                                                ",
"                  . + @ # $ $ $ $ $ $ # @ + .                   ",
"                  +   % & * = * * = * & %   +                   ",
"              . + - # ; > , ' , , ' , > ; # - + .               ",
"              +   # & > ) ! ~ ! ! ~ ! ) > & #   +               ",
"          . + - # { > ] ^ / ( _ _ : _ ^ ] > < [ } + .           ",
"          +   # & > ) | 1 2 3 2 2 3 2 1 | ) > & #   +           ",
"      . + - # { > 4 ^ 5 6 7 8 9 0 a b 6 5 c d e f [ } + .       ",
"      +   # & > ) ^ 1 6 g h i j k l m g 6 n o p e & [   +       ",
"  q   @ % ; > ] | 5 6 b a r s t u v 0 w x y z A B C D % @   q   ",
"  +   # & > ) ^ 1 6 g a E F G H t I 9 J K L M N O p e & [   +   ",
"  P + Q R ' ~ S T b m U V W X G s Y Z x x `  ...+.@.#.R Q + P   ",
"  $.  $ = ' ~ : 3 a l V %.&.W F r *.7 x x ` =.-.;.>.,.= '.  $.  ",
"  @ % ; > ] | 5 6 ).v W &.%.V !.~.x x x x `  .{.].A ^.C D % @   ",
"  # & /.(._.1 :.<.[.}.X W V U a b x x x x |. .1.2.3.4.5.e & [   ",
"  $ * 6.7.8.9.x w *.Y I v !.0 x x x x 0.a.b.c.d.e.-.f.g.h.* $   ",
"  $ = i.j.k.l.J w 7 *.[.).~.b x x x x a.m.c.n.d.e.-.o.>.,.= '.  ",
"  $ * h.g.p.q.x w x x x x x x x x x x |. .e.e.d.e.-.f.g.h.* $   ",
"  $ * h.@.p.q.x w x x x x x x x x x x r. .e.s.d.e.-.f.g.h.* $   ",
"  $ * h.g.p.q.x w x x x x x x x x 0.a.b.c.e.e.d.e.-.f.g.h.* $   ",
"  $ * h.g.p.q.x w x x x x x x x x a.m.c.n.e.e.d.e.-.f.g.h.* $   ",
"  '.= h.>.t.u.w w x x x x x x 0.a.b.c.e.e.e.e.d.v.-.o.>.,.= '.  ",
"  $ * h.g.p.q.x w x x x x x x a.m.c.w.e.e.e.e.d.e.-.f.g.h.* $   ",
"  [ & e p x.y.z.A.w w w w B.C.D.E.d.F.d.d.d.d.1.{.N O p e & [   ",
"  @ % D C G.x.H.z.x w x x a.m.c.w.e.e.e.e.v.e.{.I.A ^.C D % @   ",
"  +   [ & e p x.y.q.u.q.q.J.K.-.L.-.-.-.-.-.-.N A p e & [   +   ",
"  . + } [ f e G.x.p.t.p.p.M.N.O.O.f.f.f.f.o.f.O ^.e f [ } + .   ",
"      +   [ & C p g.>.g.g.g.g.g.g.g.g.g.g.>.g.p C & [   +       ",
"      . + } [ D e h.h.h.h.h.h.h.h.h.h.h.h.,.h.e D [ } + .       ",
"          +   % & * = * * * * * * * * * * = * & %   +           ",
"          . + @ [ $ '.$ $ $ $ $ $ $ $ $ $ '.$ [ @ + .           ",
"                                                                "};
