/* XPM */
static char * Fox_xpm[] = {
"32 32 532 2",
"  	c #4E6338",
". 	c #4C6137",
"+ 	c #495D36",
"@ 	c #455934",
"# 	c #435732",
"$ 	c #445832",
"% 	c #485D35",
"& 	c #4B6037",
"* 	c #4D6238",
"= 	c #4B5F36",
"- 	c #445831",
"; 	c #405430",
"> 	c #435632",
", 	c #475B35",
"' 	c #4C6037",
") 	c #3D5132",
"! 	c #33452E",
"~ 	c #2C3C2A",
"{ 	c #31422C",
"] 	c #3E5131",
"^ 	c #475A34",
"/ 	c #36472D",
"( 	c #293928",
"_ 	c #2A3A29",
": 	c #36482E",
"< 	c #465B35",
"[ 	c #36492F",
"} 	c #354639",
"| 	c #455449",
"1 	c #49594B",
"2 	c #445541",
"3 	c #435639",
"4 	c #485C37",
"5 	c #4A5F37",
"6 	c #4A6037",
"7 	c #55674A",
"8 	c #6A7A63",
"9 	c #657361",
"0 	c #404C42",
"a 	c #2B3B2A",
"b 	c #465A34",
"c 	c #4B5C4C",
"d 	c #6D806E",
"e 	c #728371",
"f 	c #5D6758",
"g 	c #4B5340",
"h 	c #465638",
"i 	c #445834",
"j 	c #3F5130",
"k 	c #3E4A31",
"l 	c #727E66",
"m 	c #A5B798",
"n 	c #A3B497",
"o 	c #677563",
"p 	c #415430",
"q 	c #455A33",
"r 	c #546351",
"s 	c #7D8C77",
"t 	c #8E927B",
"u 	c #8D7863",
"v 	c #7D614B",
"w 	c #5D563D",
"x 	c #435136",
"y 	c #425035",
"z 	c #4F4B32",
"A 	c #664C37",
"B 	c #968B70",
"C 	c #C4C9A5",
"D 	c #BDC7A4",
"E 	c #78816B",
"F 	c #40542F",
"G 	c #455A34",
"H 	c #535D4B",
"I 	c #7E816B",
"J 	c #A28D73",
"K 	c #BD8666",
"L 	c #B47755",
"M 	c #815E46",
"N 	c #524D3C",
"O 	c #504C3C",
"P 	c #514C3C",
"Q 	c #70523D",
"R 	c #996144",
"S 	c #BB8F6D",
"T 	c #D3BD97",
"U 	c #C3B894",
"V 	c #7B7761",
"W 	c #3F5430",
"X 	c #525441",
"Y 	c #7E715B",
"Z 	c #AB8264",
"` 	c #D28861",
" .	c #D1825A",
"..	c #AA6F50",
"+.	c #8D624A",
"@.	c #8C614A",
"#.	c #A0674B",
"$.	c #BD734F",
"%.	c #D28D66",
"&.	c #DCAA81",
"*.	c #C5A17C",
"=.	c #7C6852",
"-.	c #3F5631",
";.	c #4F6438",
">.	c #455B35",
",.	c #524A38",
"'.	c #7F5E48",
").	c #AB7052",
"!.	c #D27E56",
"~.	c #DD8459",
"{.	c #D18259",
"].	c #C9805A",
"^.	c #C8805A",
"/.	c #CE8058",
"(.	c #D68056",
"_.	c #DE875C",
":.	c #E19167",
"<.	c #C6845F",
"[.	c #7D5641",
"}.	c #3F5632",
"|.	c #534532",
"1.	c #7F523B",
"2.	c #A26143",
"3.	c #BE6E4A",
"4.	c #D17B52",
"5.	c #DC865A",
"6.	c #E28B5E",
"7.	c #D17D54",
"8.	c #D27A51",
"9.	c #DB7D52",
"0.	c #C4704A",
"a.	c #7B4934",
"b.	c #233326",
"c.	c #324A2C",
"d.	c #425731",
"e.	c #465B33",
"f.	c #495E36",
"g.	c #4D6137",
"h.	c #554532",
"i.	c #8F573F",
"j.	c #91583E",
"k.	c #AB6646",
"l.	c #D27B52",
"m.	c #E38558",
"n.	c #E48558",
"o.	c #D27C53",
"p.	c #AE6848",
"q.	c #AC6646",
"r.	c #CB744D",
"s.	c #C06D48",
"t.	c #794733",
"u.	c #182824",
"v.	c #1E3728",
"w.	c #31442D",
"x.	c #384C30",
"y.	c #415533",
"z.	c #4A5E36",
"A.	c #564632",
"B.	c #7F533B",
"C.	c #81523C",
"D.	c #674435",
"E.	c #8B543C",
"F.	c #C9734D",
"G.	c #E38154",
"H.	c #E48153",
"I.	c #E38053",
"J.	c #E58154",
"K.	c #E38153",
"L.	c #CA734C",
"M.	c #90563E",
"N.	c #8C553D",
"O.	c #C06F4A",
"P.	c #BC6C48",
"Q.	c #784836",
"R.	c #3F4D43",
"S.	c #627462",
"T.	c #6A7B66",
"U.	c #556754",
"V.	c #465A42",
"W.	c #475C3A",
"X.	c #4A5F36",
"Y.	c #4D6237",
"Z.	c #7E503B",
"`.	c #5C3E32",
" +	c #844F3A",
".+	c #C8724C",
"++	c #E48154",
"@+	c #C8734C",
"#+	c #88523B",
"$+	c #84503A",
"%+	c #BC6D49",
"&+	c #BA6B47",
"*+	c #784C3B",
"=+	c #677766",
"-+	c #A0B498",
";+	c #A7BC9E",
">+	c #81957E",
",+	c #5B6F5B",
"'+	c #485C42",
")+	c #435834",
"!+	c #374A30",
"~+	c #514531",
"{+	c #79503A",
"]+	c #83553E",
"^+	c #7F5540",
"/+	c #9F6246",
"(+	c #CF7850",
"_+	c #E1895F",
":+	c #DD966F",
"<+	c #D69570",
"[+	c #D08864",
"}+	c #D3855E",
"|+	c #DD8D63",
"1+	c #CF855E",
"2+	c #A46C4E",
"3+	c #9C6246",
"4+	c #BC6E4A",
"5+	c #B26645",
"6+	c #734C3D",
"7+	c #788874",
"8+	c #BACFAD",
"9+	c #C7DDB9",
"0+	c #A9BEA0",
"a+	c #82977F",
"b+	c #5B6E59",
"c+	c #40543A",
"d+	c #465B36",
"e+	c #384B30",
"f+	c #494430",
"g+	c #6B4B36",
"h+	c #8C5D43",
"i+	c #AB7353",
"j+	c #C57D57",
"k+	c #D98056",
"l+	c #CFB491",
"m+	c #BBB394",
"n+	c #A4947B",
"o+	c #AE8B6F",
"p+	c #D19F78",
"q+	c #DAA076",
"r+	c #CC8E66",
"s+	c #C17C57",
"t+	c #BB714D",
"u+	c #A15E41",
"v+	c #6B4A3C",
"w+	c #7E8974",
"x+	c #C0D0AD",
"y+	c #D5E8C1",
"z+	c #C8DDB9",
"A+	c #738571",
"B+	c #415545",
"C+	c #415638",
"D+	c #455A35",
"E+	c #3F5332",
"F+	c #444A31",
"G+	c #5A4933",
"H+	c #835B41",
"I+	c #AD7553",
"J+	c #C57E57",
"K+	c #CF7C54",
"L+	c #CD9672",
"M+	c #BEBB9B",
"N+	c #A7BEA1",
"O+	c #8CA28C",
"P+	c #97967E",
"Q+	c #C0A380",
"R+	c #D1A27A",
"S+	c #CE9169",
"T+	c #C17D58",
"U+	c #A96849",
"V+	c #90553C",
"W+	c #7D503D",
"X+	c #94846B",
"Y+	c #C0BF9C",
"Z+	c #CFD7B1",
"`+	c #C4D5B1",
" @	c #708270",
".@	c #3D5043",
"+@	c #3E5237",
"@@	c #465634",
"#@	c #464B31",
"$@	c #624E37",
"%@	c #865C42",
"&@	c #9E6446",
"*@	c #AD6948",
"=@	c #B08669",
"-@	c #A9AC90",
";@	c #9FB79C",
">@	c #95AD94",
",@	c #99A289",
"'@	c #AA987B",
")@	c #B08A6A",
"!@	c #AB7757",
"~@	c #9B6246",
"{@	c #7F503B",
"]@	c #804D38",
"^@	c #9D5D40",
"/@	c #B27A5A",
"(@	c #BC9977",
"_@	c #B5A585",
":@	c #9BA185",
"<@	c #798C76",
"[@	c #506253",
"}@	c #324535",
"|@	c #3D5233",
"1@	c #475C36",
"2@	c #3A4E31",
"3@	c #474631",
"4@	c #644935",
"5@	c #7A4E38",
"6@	c #8B573F",
"7@	c #93725B",
"8@	c #92927B",
"9@	c #91A189",
"0@	c #929780",
"a@	c #92846C",
"b@	c #907059",
"c@	c #8A5E47",
"d@	c #7A4D39",
"e@	c #614033",
"f@	c #794A36",
"g@	c #AA6141",
"h@	c #BA6F4C",
"i@	c #B07554",
"j@	c #997458",
"k@	c #716B56",
"l@	c #4B5E4D",
"m@	c #384D3A",
"n@	c #374A2F",
"o@	c #425733",
"p@	c #485D36",
"q@	c #3C5132",
"r@	c #464931",
"s@	c #5D4834",
"t@	c #6F4A37",
"u@	c #7B4F3B",
"v@	c #805E4A",
"w@	c #7F705D",
"x@	c #7F7A66",
"y@	c #807A66",
"z@	c #807561",
"A@	c #7F6955",
"B@	c #7E5D49",
"C@	c #7C533F",
"D@	c #724A38",
"E@	c #654334",
"F@	c #7D4C37",
"G@	c #A55F40",
"H@	c #AD6444",
"I@	c #9A5F43",
"J@	c #7E5741",
"K@	c #584F3D",
"L@	c #3B4F39",
"M@	c #405536",
"N@	c #495935",
"O@	c #4A5134",
"P@	c #514A34",
"Q@	c #5E4835",
"R@	c #764D39",
"S@	c #90583F",
"T@	c #9B664B",
"U@	c #9B7359",
"V@	c #9A7A5F",
"W@	c #997A5F",
"X@	c #9A765B",
"Y@	c #9A6E53",
"Z@	c #92634A",
"`@	c #805540",
" #	c #744B39",
".#	c #754B38",
"+#	c #83503A",
"@#	c #95573C",
"##	c #96573C",
"$#	c #854F39",
"%#	c #6B4734",
"&#	c #48402F",
"*#	c #425633",
"=#	c #495033",
"-#	c #5A4D35",
";#	c #5F4936",
">#	c #5F4535",
",#	c #87533C",
"'#	c #B86B48",
")#	c #CD835C",
"!#	c #CC9771",
"~#	c #CBA17B",
"{#	c #CB9B75",
"]#	c #CB8F68",
"^#	c #B97C59",
"/#	c #905F46",
"(#	c #7A4E3B",
"_#	c #86533D",
":#	c #784936",
"<#	c #704433",
"[#	c #714634",
"}#	c #654432",
"|#	c #463F2E",
"1#	c #3B4F31",
"2#	c #424530",
"3#	c #564433",
"4#	c #584033",
"5#	c #543C31",
"6#	c #8B523B",
"7#	c #CA734D",
"8#	c #E39166",
"9#	c #E3AA80",
"0#	c #E1B68C",
"a#	c #E2AF84",
"b#	c #E2A075",
"c#	c #CB8861",
"d#	c #946248",
"e#	c #714938",
"f#	c #7D4E3A",
"g#	c #784B38",
"h#	c #573A2F",
"i#	c #48332C",
"j#	c #5A3C2F",
"k#	c #594231",
"l#	c #454630",
"m#	c #3C5031",
"n#	c #475C35",
"o#	c #323C2C",
"p#	c #39342B",
"q#	c #352C29",
"r#	c #342A28",
"s#	c #824B36",
"t#	c #C8724B",
"u#	c #E39368",
"v#	c #E3AE84",
"w#	c #E1BA90",
"x#	c #E1BB90",
"y#	c #E2B388",
"z#	c #E2A378",
"A#	c #C98862",
"B#	c #8A5E46",
"C#	c #523A30",
"D#	c #52382E",
"E#	c #4D342D",
"F#	c #342927",
"G#	c #2B2726",
"H#	c #3C332A",
"I#	c #43412E",
"J#	c #435032",
"K#	c #465A35",
"L#	c #34462E",
"M#	c #2F3E2C",
"N#	c #1F3328",
"O#	c #192725",
"P#	c #794632",
"Q#	c #C06E49",
"R#	c #D68960",
"S#	c #CC9C76",
"T#	c #C4A580",
"U#	c #C4A581",
"V#	c #C79F7A",
"W#	c #C9926C",
"X#	c #B47B5A",
"Y#	c #795440",
"Z#	c #352D2B",
"`#	c #1F2326",
" $	c #171F24",
".$	c #0F1C23",
"+$	c #1B2925",
"@$	c #2D3B2B",
"#$	c #3B4C30",
"$$	c #465934",
"%$	c #364C2F",
"&$	c #253628",
"*$	c #B26A48",
"=$	c #BB7552",
"-$	c #976D53",
";$	c #7A6853",
">$	c #796853",
",$	c #846952",
"'$	c #92684F",
")$	c #885D46",
"!$	c #5E4437",
"~$	c #302B2A",
"{$	c #182125",
"]$	c #091D23",
"^$	c #0D2123",
"/$	c #263729",
"($	c #3C4F31",
"_$	c #415733",
":$	c #2D3F2B",
"<$	c #6C5843",
"[$	c #A88362",
"}$	c #A88262",
"|$	c #6B5642",
"1$	c #112423",
"2$	c #102923",
"3$	c #424133",
"4$	c #645745",
"5$	c #675947",
"6$	c #4E483C",
"7$	c #353A32",
"8$	c #2B382C",
"9$	c #273829",
"0$	c #2A3B2A",
"a$	c #37492F",
"b$	c #435832",
"c$	c #696F57",
"d$	c #A2A581",
"e$	c #676D56",
"f$	c #183225",
"g$	c #203A26",
"h$	c #46563F",
"i$	c #636F57",
"j$	c #66715A",
"k$	c #505C4B",
"l$	c #3F4F3D",
"m$	c #3F5136",
"n$	c #435733",
"o$	c #465B34",
"p$	c #627457",
"q$	c #90A480",
"r$	c #3A4F2F",
"s$	c #4E6243",
"t$	c #617658",
"u$	c #62765B",
"v$	c #51654D",
"w$	c #465B40",
"x$	c #495E3A",
"y$	c #4B6036",
"z$	c #566A45",
"A$	c #6B805B",
"B$	c #4E633D",
"C$	c #556B46",
"D$	c #566B47",
"E$	c #4F6441",
"F$	c #4C613B",
"G$	c #4D6239",
"                                                                ",
"                                                                ",
"                                                                ",
"      . + @ # $ % & *                 = - ; > , '               ",
"      + ) ! ~ { ] , .                 ^ / ( _ : ,               ",
"      < [ } | 1 2 3 4 5 6 5 5 6 5 % , 7 8 9 0 a >               ",
"      b [ c d e f g h i i i i i i j k l m n o _ p               ",
"      q [ r s t u v w x y x x x x z A B C D E a F               ",
"      G [ H I J K L M N O N N P N Q R S T U V a W               ",
"      G [ X Y Z `  ...+.@.+.+.+.+.#.$.%.&.*.=.a -.  ;.          ",
"      >.[ ,.'.).!.~.{.].^.].].].]./.(._.:.<.[.a }.              ",
"      >.[ |.1.2.3.4.5.6.6.6.6.6.6.5.7.8.9.0.a.b.c.d.e.f.g.      ",
"      >.[ h.1.i.j.k.l.m.n.m.m.n.m.o.p.q.r.s.t.u.v.w.x.y.z.      ",
"      >.[ A.B.C.D.E.F.G.H.I.H.J.K.L.M.N.O.P.Q.R.S.T.U.V.W.X.Y.  ",
"      >.[ A.1.Z.`. +.+G.++G.G.++G.@+#+$+%+&+*+=+-+;+>+,+'+)+X.  ",
"      >.!+~+{+]+^+/+(+_+:+<+[+}+|+1+2+3+4+5+6+7+8+9+0+a+b+c+d+& ",
"      < e+f+g+h+i+j+k+:+l+m+n+o+p+q+r+s+t+u+v+w+x+y+z+0+A+B+C+D+",
"      f.E+F+G+H+I+J+K+L+M+N+O+P+Q+R+S+T+U+V+W+X+Y+Z+`+;+ @.@+@)+",
"      . f.@@#@$@%@&@*@=@-@;@>@,@'@)@!@~@{@]@^@/@(@_@:@<@[@}@|@D+",
"          1@2@3@4@5@6@7@8@9@9@0@a@b@c@d@e@f@g@h@i@j@k@l@m@n@o@p@",
"          p@q@r@s@t@u@v@w@x@y@z@A@B@C@D@E@F@G@H@I@J@K@L@M@, X.. ",
"      Y.X.N@O@P@Q@R@S@T@U@V@W@X@Y@Z@`@ #.#+#@###$#%#&#[ <       ",
"      X.*#=#-#;#>#,#'#)#!#~#~#{#]#^#/#(#_#,#:#<#[#}#|#[ <       ",
"      1@1#2#3#4#5#6#7#8#9#0#0#a#b#c#d#e#f#g#h#i#j#k#l#m#p@      ",
"      n#e+o#p#q#r#s#t#u#v#w#x#y#z#A#B#C#D#E#F#G#H#I#J#K#&       ",
"      + ) L#M#N#O#P#Q#R#S#T#U#V#W#X#Y#Z#`# $.$+$@$#$$$& *       ",
"      . + K#i %$&$[#*$=$-$;$>$,$'$)$!$~${$]$^$/$($n#& *         ",
"              _$:$<$[$}$|$1$2$3$4$5$6$7$8$9$0$a$,               ",
"          ;.  b$w.c$d$d$e$f$g$h$i$j$k$l$m$y.n$, .               ",
"              o$1#p$q$q$p$[ r$s$t$u$v$w$x$. *                   ",
"              y$p@z$A$A$z$, % B$C$D$E$F$G$                      ",
"                                                                "};
