/* XPM */
static char * Fox_xpm[] = {
"32 32 277 2",
"  	c None",
". 	c #071821",
"+ 	c #424D44",
"@ 	c #6A7865",
"# 	c #74846F",
"$ 	c #6C7967",
"% 	c #AABD9E",
"& 	c #AFC3A3",
"* 	c #778671",
"= 	c #7C8C76",
"- 	c #C3D9B5",
"; 	c #CCDBB7",
"> 	c #A0967A",
", 	c #764432",
"' 	c #7B8C76",
") 	c #C4D9B6",
"! 	c #DBE0B9",
"~ 	c #CEA581",
"{ 	c #B26644",
"] 	c #763F2C",
"^ 	c #001420",
"/ 	c #7B7E69",
"( 	c #C4C4A1",
"_ 	c #E2CEA6",
": 	c #E3A37B",
"< 	c #CE7850",
"[ 	c #9F6346",
"} 	c #7A5843",
"| 	c #785843",
"1 	c #7C5F4C",
"2 	c #C59573",
"3 	c #E3A179",
"4 	c #E58F64",
"5 	c #DC8459",
"6 	c #CC8860",
"7 	c #C38B65",
"8 	c #7C4834",
"9 	c #C6704A",
"0 	c #E38154",
"a 	c #E58255",
"b 	c #E3885B",
"c 	c #E29366",
"d 	c #E1986C",
"e 	c #7C4633",
"f 	c #C66F48",
"g 	c #E37F52",
"h 	c #E48154",
"i 	c #E38457",
"j 	c #E3885C",
"k 	c #E38B5E",
"l 	c #7D4834",
"m 	c #DC7D52",
"n 	c #D0764E",
"o 	c #CF754D",
"p 	c #C6714A",
"q 	c #00121E",
"r 	c #7E4834",
"s 	c #CE754D",
"t 	c #A15C3F",
"u 	c #A05B3E",
"v 	c #001320",
"w 	c #7E4935",
"x 	c #C5704A",
"y 	c #7D4734",
"z 	c #7A4633",
"A 	c #E38053",
"B 	c #E48052",
"C 	c #E38052",
"D 	c #C7704A",
"E 	c #414C43",
"F 	c #687766",
"G 	c #7A8974",
"H 	c #7B8A74",
"I 	c #74836F",
"J 	c #7A4734",
"K 	c #E48254",
"L 	c #6A7866",
"M 	c #A9BD9F",
"N 	c #C4D9B5",
"O 	c #75846F",
"P 	c #794633",
"Q 	c #BF6D48",
"R 	c #C7744E",
"S 	c #9E6448",
"T 	c #9F6447",
"U 	c #E38E64",
"V 	c #E3A279",
"W 	c #DB9D77",
"X 	c #CD825C",
"Y 	c #BF6A45",
"Z 	c #784533",
"` 	c #798A74",
" .	c #C3DAB6",
"..	c #E1FAD0",
"+.	c #E1F9D0",
"@.	c #CCE2BD",
"#.	c #9FB194",
"$.	c #788671",
"%.	c #6F4030",
"&.	c #B16443",
"*.	c #C97A53",
"=.	c #C78660",
"-.	c #CD875F",
";.	c #DB8459",
">.	c #E2CDA6",
",.	c #CCC6A2",
"'.	c #9F896E",
").	c #B0613F",
"!.	c #C4DAB6",
"~.	c #E2FAD1",
"{.	c #DAF2CA",
"].	c #CBE1BC",
"^.	c #B0C4A4",
"/.	c #633A2D",
"(.	c #98563B",
"_.	c #B7714E",
":.	c #CE8961",
"<.	c #DC8E63",
"[.	c #E2875B",
"}.	c #E4AD85",
"|.	c #E2E2BA",
"1.	c #9FB296",
"2.	c #CF8961",
"3.	c #9A5539",
"4.	c #7D4733",
"5.	c #91826A",
"6.	c #C3C4A2",
"7.	c #DBE6BF",
"8.	c #E0F3CB",
"9.	c #CBE2BD",
"0.	c #AABE9F",
"a.	c #697765",
"b.	c #643B2E",
"c.	c #8B543C",
"d.	c #B8714E",
"e.	c #D27D53",
"f.	c #DE8155",
"g.	c #E2AC84",
"h.	c #E1E2BA",
"i.	c #D9F1C9",
"j.	c #CBE3BE",
"k.	c #7D4732",
"l.	c #9B583C",
"m.	c #B37454",
"n.	c #C39472",
"o.	c #D1BE9A",
"p.	c #DBE6BE",
"q.	c #CCE3BD",
"r.	c #9FB295",
"s.	c #6C7A67",
"t.	c #3E4941",
"u.	c #643B2D",
"v.	c #97563B",
"w.	c #B06240",
"x.	c #BF6C48",
"y.	c #C4C5A2",
"z.	c #9A583C",
"A.	c #7E4934",
"B.	c #894E37",
"C.	c #B06442",
"D.	c #C26C46",
"E.	c #C36F48",
"F.	c #C39674",
"G.	c #B1C4A4",
"H.	c #768671",
"I.	c #000018",
"J.	c #6E3E2E",
"K.	c #774532",
"L.	c #7C5E4B",
"M.	c #7B7C68",
"N.	c #774432",
"O.	c #BD6B46",
"P.	c #C36D47",
"Q.	c #B27455",
"R.	c #75836F",
"S.	c #784633",
"T.	c #7C4C38",
"U.	c #7B533F",
"V.	c #7A5742",
"W.	c #8A4F38",
"X.	c #9E5A3D",
"Y.	c #AD6241",
"Z.	c #B66744",
"`.	c #BB6A46",
" +	c #BA6A45",
".+	c #A25C3E",
"++	c #653B2E",
"@+	c #774533",
"#+	c #B26544",
"$+	c #C57751",
"%+	c #C3835D",
"&+	c #C38963",
"*+	c #B36644",
"=+	c #804934",
"-+	c #9C593C",
";+	c #AB6140",
">+	c #945338",
",+	c #5A3127",
"'+	c #95553B",
")+	c #B76846",
"!+	c #DD7D52",
"~+	c #E28C60",
"{+	c #E19E73",
"]+	c #E0A77C",
"^+	c #E0A87C",
"/+	c #824A35",
"(+	c #884D36",
"_+	c #935339",
":+	c #9D593C",
"<+	c #8C5037",
"[+	c #57342A",
"}+	c #B66745",
"|+	c #97563C",
"1+	c #A15B3E",
"2+	c #CF764D",
"3+	c #E39166",
"4+	c #E3AA80",
"5+	c #E1B68B",
"6+	c #E1B68C",
"7+	c #96563B",
"8+	c #814A35",
"9+	c #714130",
"0+	c #915238",
"a+	c #8B4F37",
"b+	c #58342A",
"c+	c #6D4030",
"d+	c #AC6242",
"e+	c #6E4030",
"f+	c #7C4632",
"g+	c #E39469",
"h+	c #E3B086",
"i+	c #E1BD93",
"j+	c #AD6342",
"k+	c #4C2F28",
"l+	c #784532",
"m+	c #7D4833",
"n+	c #54332A",
"o+	c #442B27",
"p+	c #6A3E2F",
"q+	c #412A27",
"r+	c #7A4532",
"s+	c #E29369",
"t+	c #E2B086",
"u+	c #E0BC92",
"v+	c #E0BD93",
"w+	c #432B27",
"x+	c #2B2123",
"y+	c #492D28",
"z+	c #53322A",
"A+	c #784330",
"B+	c #BF6B46",
"C+	c #D5875E",
"D+	c #CB9B76",
"E+	c #C4A480",
"F+	c #C3A480",
"G+	c #001721",
"H+	c #704030",
"I+	c #B16543",
"J+	c #BB704D",
"K+	c #966B51",
"L+	c #7A6853",
"M+	c #796853",
"N+	c #B26543",
"O+	c #00111F",
"P+	c #001520",
"Q+	c #031721",
"R+	c #705B4A",
"S+	c #B08D6F",
"T+	c #B18D6F",
"U+	c #000F1E",
"V+	c #787D69",
"W+	c #BCC2A1",
"X+	c #767C68",
"Y+	c #00091C",
"Z+	c #BDC2A1",
"`+	c #7D8C76",
" @	c #C3D8B5",
"                                                                ",
"                                                                ",
"    . . . .                             . . . .                 ",
"    . + @ #                             # @ + .                 ",
"    . $ % & * .                     . * & % $ .                 ",
"    . = - ; > ,                     , > ; - = .                 ",
"    . ' ) ! ~ { ] . ^ . . . . ^ . ] { ~ ! ) ' .                 ",
"    . / ( _ : < [ } | } } } } | } [ < : _ ( / .                 ",
"    . 1 2 3 4 5 6 7 7 7 7 7 7 7 7 6 5 4 3 2 1 .                 ",
"    . 8 9 0 a b c d d d d d d d d c b a 0 9 8 .                 ",
"    . e f g h i j k k k k k k k k j i h g f e .                 ",
"    . l 9 m n o m 0 0 0 0 0 0 0 0 m o n m p l q                 ",
"    . r 9 s t u s 0 h 0 0 0 0 h 0 s u t s p r . v . . .         ",
"    . w p x y z x A B C h h C B A x z y x D w E F G H I         ",
"    . w 9 x l J x 0 K 0 0 0 0 K 0 x J l x f w L M N ) & O .     ",
"    . P Q R S T < U V W X X W V U < T S R Y Z `  ...+.@.#.$.    ",
"    . %.&.*.=.-.;.: >.,.'.'.,.>.: ;.-.=.*.).%.H !.+.~.{.].^.I . ",
"    . /.(._.:.<.[.}.|.@.1.1.@.|.}.[.<.2._.3.4.5.6.7.8.{.9.0.a.. ",
"        b.c.d.e.f.g.h.i.j.j.i.h.g.f.e.d.c.k.l.m.n.o.p.q.r.s.t.. ",
"        . u.v.w.x.2 y.-  . .- y.2 x.w.z.A.B.C.D.E.F.y.G.H.. I.. ",
"            /.J.K.L.M.H = = H M.L.N.J.4.l.C.O.P.D.Q.5.R.        ",
"            S.r l T.U.V.V.V.V.U.T.8 r W.X.Y.Z.`. +.+++.         ",
"        . @+#+9 p $+%+&+&+&+&+%+$+p 9 *+W.=+-+;+;+>+,+I.        ",
"        P '+)+o !+~+{+]+^+^+]+{+~+!+o )+'+/+(+_+:+<+[+.         ",
"    . S.#+}+|+1+2+3+4+5+6+6+5+4+3+2+1+7+}+&.8+9+0+a+b+.         ",
"    . c+d+d+e+f+p g+h+i+i+i+i+h+g+p f+e+d+j+e+k+l+m+n+.         ",
"    . o+c+p+q+r+9 s+t+u+v+v+u+t+s+9 r+q+p+c+w+x+y+z+            ",
"    . . . v . A+B+C+D+E+F+F+E+D+C+B+A+. ^ . . . . .             ",
"            G+H+I+J+K+L+M+M+L+K+J+N+H+G+O+P+G+Q+                ",
"            . R+S+T+R+. U+U+. R+T+T+R+. U+. . .                 ",
"            . V+W+W+X+Y+    Y+X+W+Z+V+.                         ",
"            . `+ @ @`+.     . `+ @ @`+.                         "};
