/* XPM */
static char * house_xpm[] = {
"32 32 538 2",
"  	c #4E6338",
". 	c #4D6338",
"+ 	c #5A633E",
"@ 	c #6C6248",
"# 	c #74624D",
"$ 	c #4C6337",
"% 	c #4B6237",
"& 	c #52613A",
"* 	c #5E6140",
"= 	c #6D6A48",
"- 	c #7E7852",
"; 	c #877F57",
"> 	c #888057",
", 	c #847E56",
"' 	c #7B7953",
") 	c #767751",
"! 	c #867F57",
"~ 	c #7E7752",
"{ 	c #4B6236",
"] 	c #4C6237",
"^ 	c #5D6240",
"/ 	c #75624D",
"( 	c #93775E",
"_ 	c #B29570",
": 	c #C1A479",
"< 	c #C3A77B",
"[ 	c #B4A373",
"} 	c #939A62",
"| 	c #7A9457",
"1 	c #5B673F",
"2 	c #6F6E4A",
"3 	c #7A7650",
"4 	c #7F7C53",
"5 	c #827C55",
"6 	c #877A58",
"7 	c #9C8A65",
"8 	c #B9A576",
"9 	c #C9B47F",
"0 	c #CCB880",
"a 	c #BEB579",
"b 	c #9CAD67",
"c 	c #84A85C",
"d 	c #83A75B",
"e 	c #9AAB67",
"f 	c #BCB378",
"g 	c #CCB780",
"h 	c #BDA977",
"i 	c #9E8C65",
"j 	c #867A58",
"k 	c #807C54",
"l 	c #817F54",
"m 	c #847F56",
"n 	c #7A7950",
"o 	c #616B42",
"p 	c #6E6E49",
"q 	c #967F60",
"r 	c #AB906D",
"s 	c #B39E72",
"t 	c #ABA16E",
"u 	c #939C62",
"v 	c #8D9F5F",
"w 	c #9CAA67",
"x 	c #A7B26C",
"y 	c #ACB86D",
"z 	c #A8B96A",
"A 	c #9AB663",
"B 	c #90B35E",
"C 	c #8EB15E",
"D 	c #94B161",
"E 	c #A2B468",
"F 	c #ADB86D",
"G 	c #B2BB70",
"H 	c #A9B56C",
"I 	c #93A361",
"J 	c #929C61",
"K 	c #A8A16D",
"L 	c #B7A475",
"M 	c #BDA377",
"N 	c #AB966C",
"O 	c #7A784F",
"P 	c #6F6D4A",
"Q 	c #987F61",
"R 	c #B09570",
"S 	c #BBAB77",
"T 	c #B5B474",
"U 	c #9FB367",
"V 	c #8FB15F",
"W 	c #8BAE5E",
"X 	c #8EB15F",
"Y 	c #95B760",
"Z 	c #99BA60",
"` 	c #97B95F",
" .	c #93B65E",
"..	c #90B45D",
"+.	c #8FB45D",
"@.	c #A0BD65",
"#.	c #9FBC64",
"$.	c #94B560",
"%.	c #9BB165",
"&.	c #B0B272",
"*.	c #BEAF79",
"=.	c #C2A77B",
"-.	c #AE956E",
";.	c #7C7850",
">.	c #5F6641",
",.	c #786E4F",
"'.	c #8D875B",
").	c #9DA765",
"!.	c #A7BA69",
"~.	c #A8C168",
"{.	c #A1BF65",
"].	c #92B460",
"^.	c #8DB05E",
"/.	c #94B65F",
"(.	c #9BBB60",
"_.	c #9ABA60",
":.	c #96B85F",
"<.	c #92B55E",
"[.	c #9FBD64",
"}.	c #A4C066",
"|.	c #A3C165",
"1.	c #A2BD65",
"2.	c #9FB567",
"3.	c #9DA566",
"4.	c #998E63",
"5.	c #897859",
"6.	c #686A45",
"7.	c #4D6337",
"8.	c #5B623F",
"9.	c #6E7E4A",
"0.	c #87A558",
"a.	c #9CBC61",
"b.	c #ABC767",
"c.	c #A9C466",
"d.	c #95B560",
"e.	c #8DAD5D",
"f.	c #96AF5D",
"g.	c #A0B262",
"h.	c #A8B669",
"i.	c #ABB86D",
"j.	c #A8B66C",
"k.	c #A2B268",
"l.	c #98AD60",
"m.	c #97B05E",
"n.	c #A0BA63",
"o.	c #A6C266",
"p.	c #AAC666",
"q.	c #A3C264",
"r.	c #93B55F",
"s.	c #829F58",
"t.	c #747C4E",
"u.	c #656244",
"v.	c #56623C",
"w.	c #4E6138",
"x.	c #51623A",
"y.	c #677E45",
"z.	c #84A456",
"A.	c #9BBB61",
"B.	c #A9C566",
"C.	c #A7C366",
"D.	c #96B561",
"E.	c #90A95D",
"F.	c #9BA15D",
"G.	c #ABA367",
"H.	c #BCAD78",
"I.	c #C4B280",
"J.	c #C4B180",
"K.	c #BAAA77",
"L.	c #A79F66",
"M.	c #9EA45E",
"N.	c #A2B764",
"O.	c #A7C267",
"P.	c #A3C163",
"Q.	c #7E9E55",
"R.	c #667B46",
"S.	c #55623C",
"T.	c #506139",
"U.	c #4C6137",
"V.	c #657A42",
"W.	c #879D55",
"X.	c #A1B464",
"Y.	c #B3C070",
"Z.	c #B8C479",
"`.	c #B2C07E",
" +	c #B0B67C",
".+	c #B4A873",
"++	c #BFA576",
"@+	c #CDAD83",
"#+	c #D4B28A",
"$+	c #CCAC83",
"%+	c #BDA476",
"&+	c #B7AB75",
"*+	c #BBC07F",
"=+	c #BCC981",
"-+	c #BAC57A",
";+	c #AFBC6F",
">+	c #9BAC62",
",+	c #829653",
"'+	c #617641",
")+	c #4B6135",
"!+	c #6A7543",
"~+	c #909155",
"{+	c #AEA76B",
"]+	c #C6B982",
"^+	c #D4C695",
"/+	c #D9D0A3",
"(+	c #D9CDA2",
"_+	c #D5BE92",
":+	c #D4B689",
"<+	c #D7B689",
"[+	c #D9B68A",
"}+	c #D7B589",
"|+	c #D4B588",
"1+	c #D6BF92",
"2+	c #DCD0A3",
"3+	c #DCD3A4",
"4+	c #D5C795",
"5+	c #C5B582",
"6+	c #AC9D69",
"7+	c #8D8553",
"8+	c #697042",
"9+	c #5E6B43",
"0+	c #787954",
"a+	c #928961",
"b+	c #AC9A6B",
"c+	c #C1A97A",
"d+	c #D3B68B",
"e+	c #DBBF9A",
"f+	c #DCC5A4",
"g+	c #D8C2A2",
"h+	c #D2B692",
"i+	c #CEAC86",
"j+	c #CCA982",
"k+	c #CBA780",
"l+	c #DCC6A4",
"m+	c #D2B28A",
"n+	c #BF9F76",
"o+	c #AD936B",
"p+	c #9A916D",
"q+	c #838764",
"r+	c #64714B",
"s+	c #4D6237",
"t+	c #767853",
"u+	c #A69674",
"v+	c #C1A984",
"w+	c #CEB389",
"x+	c #D5B88B",
"y+	c #D8B78C",
"z+	c #CFAE89",
"A+	c #BC9C83",
"B+	c #AF8F7C",
"C+	c #AC8874",
"D+	c #AA836E",
"E+	c #A9816C",
"F+	c #A8806B",
"G+	c #D6B388",
"H+	c #D2AF83",
"I+	c #D1B48B",
"J+	c #D1BF9A",
"K+	c #BAB290",
"L+	c #828663",
"M+	c #787854",
"N+	c #A99575",
"O+	c #C3A886",
"P+	c #D0B18A",
"Q+	c #D5B389",
"R+	c #D3AF84",
"S+	c #C7A179",
"T+	c #AF866A",
"U+	c #A07461",
"V+	c #9F7361",
"W+	c #D3AD81",
"X+	c #D4AF82",
"Y+	c #D5B68D",
"Z+	c #D5BF9D",
"`+	c #BEB292",
" @	c #848664",
".@	c #636B45",
"+@	c #817859",
"@@	c #9C8567",
"#@	c #B39170",
"$@	c #C09974",
"%@	c #C69E74",
"&@	c #C59C70",
"*@	c #BC926A",
"=@	c #B78D67",
"-@	c #B78D68",
";@	c #C9A073",
">@	c #C79E72",
",@	c #BE9A74",
"'@	c #AD9476",
")@	c #93866C",
"!@	c #6C714F",
"~@	c #52623A",
"{@	c #5D623F",
"]@	c #7B6B4D",
"^@	c #9E7B5D",
"/@	c #B48967",
"(@	c #BF956B",
"_@	c #C49A6C",
":@	c #C59B6C",
"<@	c #C59A6C",
"[@	c #C3996B",
"}@	c #C09569",
"|@	c #AE8861",
"1@	c #897153",
"2@	c #686246",
"3@	c #56623D",
"4@	c #4E6238",
"5@	c #746B49",
"6@	c #9D7C5E",
"7@	c #B48A68",
"8@	c #C4996C",
"9@	c #C2986A",
"0@	c #AE8B61",
"a@	c #7F724B",
"b@	c #56613B",
"c@	c #4F6238",
"d@	c #726D48",
"e@	c #9D7D5E",
"f@	c #B18768",
"g@	c #B68B68",
"h@	c #B78D69",
"i@	c #BA906A",
"j@	c #BF956A",
"k@	c #C0956A",
"l@	c #BA9069",
"m@	c #C1976B",
"n@	c #BE946A",
"o@	c #BB9169",
"p@	c #B98E68",
"q@	c #AE8D61",
"r@	c #7B7449",
"s@	c #716C48",
"t@	c #9B7B5D",
"u@	c #A97E65",
"v@	c #A47863",
"w@	c #9E7362",
"x@	c #9B7263",
"y@	c #A57C65",
"z@	c #B68B67",
"A@	c #A67B63",
"B@	c #9B7061",
"C@	c #BA8F68",
"D@	c #B18767",
"E@	c #A87E65",
"F@	c #A37762",
"G@	c #A97E64",
"H@	c #B78C67",
"I@	c #AA895F",
"J@	c #797348",
"K@	c #6E6A46",
"L@	c #967659",
"M@	c #A87D65",
"N@	c #A98069",
"O@	c #A37A68",
"P@	c #986D62",
"Q@	c #9B7060",
"R@	c #AB7F63",
"S@	c #AA7E62",
"T@	c #976B5F",
"U@	c #8A5D5D",
"V@	c #95695F",
"W@	c #AC8164",
"X@	c #A77B62",
"Y@	c #A57A64",
"Z@	c #A77E69",
"`@	c #AE846A",
" #	c #B48966",
".#	c #A5825A",
"+#	c #766F46",
"@#	c #6A6643",
"##	c #906F55",
"$#	c #AD8368",
"%#	c #C29C78",
"&#	c #C19C78",
"*#	c #AE8367",
"=#	c #A1725C",
"-#	c #9F725D",
";#	c #9A6E5E",
">#	c #92655D",
",#	c #8D605D",
"'#	c #8D5F5D",
")#	c #8E615E",
"!#	c #8F6560",
"~#	c #966B5F",
"{#	c #A2745D",
"]#	c #B28767",
"^#	c #C39D78",
"/#	c #C59E78",
"(#	c #B78C68",
"_#	c #9D7955",
":#	c #716B43",
"<#	c #696643",
"[#	c #8F6E55",
"}#	c #AE8569",
"|#	c #C7A17A",
"1#	c #CAA47A",
"2#	c #B98E69",
"3#	c #A8795E",
"4#	c #9B6E5E",
"5#	c #95685E",
"6#	c #97695D",
"7#	c #996A5D",
"8#	c #986A5D",
"9#	c #91645D",
"0#	c #84595F",
"a#	c #8B5F5F",
"b#	c #A2755E",
"c#	c #9C7856",
"d#	c #716A44",
"e#	c #6B6945",
"f#	c #907359",
"g#	c #AA8267",
"h#	c #BA926F",
"i#	c #BE9570",
"j#	c #B78C69",
"k#	c #AC8064",
"l#	c #9E7363",
"m#	c #9B6F61",
"n#	c #A3755E",
"o#	c #A7795C",
"p#	c #A7785C",
"q#	c #9D6F5D",
"r#	c #895E5F",
"s#	c #8C6361",
"t#	c #A67B64",
"u#	c #B68C69",
"v#	c #A07E5C",
"w#	c #736D47",
"x#	c #656843",
"y#	c #847154",
"z#	c #9E7D60",
"A#	c #B08967",
"B#	c #B48C67",
"C#	c #A98563",
"D#	c #9C7C60",
"E#	c #91715E",
"F#	c #96735E",
"G#	c #A97F5F",
"H#	c #B3855F",
"I#	c #A47A5E",
"J#	c #87655B",
"K#	c #81645C",
"L#	c #97785F",
"M#	c #B48C68",
"N#	c #927A58",
"O#	c #6C6C45",
"P#	c #55643D",
"Q#	c #656747",
"R#	c #897755",
"S#	c #AF8C64",
"T#	c #B08D64",
"U#	c #8E7A57",
"V#	c #716A4D",
"W#	c #6B664D",
"X#	c #857154",
"Y#	c #AA855F",
"Z#	c #BB8F65",
"`#	c #BB8E65",
" $	c #A7835E",
".$	c #7E6C52",
"+$	c #63604B",
"@$	c #6E684D",
"#$	c #6C6A49",
"$$	c #59653E",
"%$	c #4B6139",
"&$	c #4E613C",
"*$	c #7D744E",
"=$	c #B08E63",
"-$	c #7D7350",
";$	c #4C5E41",
">$	c #4B5E40",
",$	c #79704E",
"'$	c #AB8960",
")$	c #C09468",
"!$	c #BF9468",
"~$	c #A9885F",
"{$	c #796F4D",
"]$	c #7D734F",
"^$	c #4E603E",
"/$	c #4B6238",
"($	c #4C613A",
"_$	c #7C744C",
":$	c #AF8E62",
"<$	c #AF8E63",
"[$	c #7C734F",
"}$	c #4A5E40",
"|$	c #AB8A60",
"1$	c #C09669",
"2$	c #C09568",
"3$	c #AA885F",
"4$	c #79704D",
"5$	c #7C734D",
"6$	c #4C603C",
"7$	c #4B6138",
"8$	c #4C6238",
"9$	c #4D6239",
"0$	c #737047",
"a$	c #9D8459",
"b$	c #9D845A",
"c$	c #736F4A",
"d$	c #4C5F3E",
"e$	c #4C5F3F",
"f$	c #BF9368",
"g$	c #A9875F",
"h$	c #4C5F40",
"i$	c #736F48",
"j$	c #4E613A",
"k$	c #5D683E",
"l$	c #727046",
"m$	c #5D673F",
"n$	c #4C613B",
"o$	c #4D603C",
"p$	c #786F4B",
"q$	c #A8865E",
"r$	c #BC9066",
"s$	c #A6835D",
"t$	c #766D4C",
"u$	c #4D603F",
"v$	c #4C613C",
"w$	c #4E6239",
"x$	c #6F6C46",
"y$	c #987D56",
"z$	c #A9855D",
"A$	c #A8835D",
"B$	c #957A55",
"C$	c #6E6A47",
"D$	c #4E613D",
"E$	c #4C6239",
"F$	c #5E663F",
"G$	c #766C49",
"H$	c #80704E",
"I$	c #806F4D",
"J$	c #5E6540",
"K$	c #4E623A",
"L$	c #53633B",
"M$	c #616243",
"                      .   + @ # # @ +   .                       ",
"      . $ % % & * = - ; > , ' ) ) ' , > ! ~ = * & % { ] .       ",
"          .   ^ / ( _ : < [ } | | } [ < : _ ( / ^   .           ",
"  .   1 2 3 4 5 6 7 8 9 0 a b c d e f 0 g h i j k l m n o   .   ",
"  $   p q r s t u v w x y z A B C D E F G H I J K L M N O   ]   ",
"  $   P Q R S T U V W X Y Z Z `  ...+.Y @.#.$.%.&.*.=.-.;.  %   ",
"  .   >.,.'.).!.~.{.].^./.Z (._.:.<.+./.[.}.|.1.2.3.4.5.6.  7.  ",
"      & 8.9.0.a.b.c.d.e.f.g.h.i.j.k.l.m.n.o.p.q.r.s.t.u.v.      ",
"      w.x.y.z.A.B.C.D.E.F.G.H.I.J.K.L.M.N.O.B.P.<.Q.R.S.T.      ",
"      U.] V.W.X.Y.Z.`. +.+++@+#+#+$+%+&+*+=+-+;+>+,+'+)+U.      ",
"      ]   !+~+{+]+^+/+(+_+:+<+[+[+}+|+1+2+3+4+5+6+7+8+  ]       ",
"  7.  9+0+a+b+c+d+e+f+g+h+i+j+k+k+j+i+h+g+l+e+m+n+o+p+q+r+  s+  ",
"  ]   t+u+v+w+x+y+z+A+B+C+D+E+F+F+E+D+C+B+A+z+G+H+I+J+K+L+  )+  ",
"  ]   M+N+O+P+Q+R+S+T+U+V+U+U+U+U+U+U+V+U+T+S+W+X+Y+Z+`+ @  )+  ",
"  7.  .@+@@@#@$@%@&@*@=@=@-@-@-@-@-@-@=@=@*@&@;@>@,@'@)@!@  ]   ",
"      ~@{@]@^@/@(@_@:@_@_@_@_@<@<@_@_@_@_@_@_@[@}@|@1@2@3@      ",
"      4@~@5@6@7@(@_@_@_@_@_@_@_@_@_@_@_@_@_@_@8@9@0@a@b@c@      ",
"      $   d@e@f@g@-@h@i@j@k@l@-@-@l@k@m@n@o@p@o@k@q@r@  ]       ",
"      $   s@t@u@v@w@x@y@z@z@A@B@B@A@z@C@D@E@F@G@H@I@J@  %       ",
"      $   K@L@M@N@O@P@Q@R@S@T@U@U@V@A@W@X@Y@Z@`@ #.#+#  ]       ",
"      7.  @###$#%#&#*#=#-#;#>#,#'#)#!#~#{#]#^#/#(#_#:#  $       ",
"      7.  <#[#}#|#1#2#3#4#5#6#7#8#9#0#a#b#2#1#1#2#c#d#  $       ",
"      7.  e#f#g#h#i#j#k#l#m#n#o#p#q#r#s#t#u#i#i#u#v#w#  $       ",
"      7.  x#y#z#A#B#C#D#E#F#G#H#H#I#J#K#L#C#M#M#C#N#O#  $       ",
"          P#Q#R#S#T#U#V#W#X#Y#Z#`# $.$+$@$U#T#T#U##$$$  .       ",
"          %$&$*$=$=$-$;$>$,$'$)$!$~${$>$;$-$=$=$]$^$%$          ",
"          /$($_$:$<$[$}$}$,$|$1$2$3$4$}$}$[$<$:$5$6$7$          ",
"          8$9$0$a$b$c$d$e$4$'$)$f$g${$h$e$c$b$b$i$j$8$          ",
"          .   k$l$l$m$n$o$p$q$r$Z#s$t$u$v$m$l$l$k$w$.           ",
"                      8$j$x$y$z$A$B$C$D$E$                      ",
"              . ] ] . . w$F$G$H$I$5@J$K$. . ] ] .               ",
"                          L$^ M$M$^ L$                          "};
