/* XPM */
static char * Star_xpm[] = {
"29 32 392 2",
"  	c None",
". 	c #462B2B",
"+ 	c #8C7B27",
"@ 	c #9F8E24",
"# 	c #4D362B",
"$ 	c #A79623",
"% 	c #D7C419",
"& 	c #A79622",
"* 	c #4E352A",
"= 	c #3F2323",
"- 	c #A7961D",
"; 	c #DFCC14",
"> 	c #A8971D",
", 	c #412424",
"' 	c #7D6D1A",
") 	c #B9A815",
"! 	c #E1CF13",
"~ 	c #B9A817",
"{ 	c #7E6D1C",
"] 	c #867529",
"^ 	c #C6B51A",
"/ 	c #E1CF11",
"( 	c #EBD811",
"_ 	c #E1CF12",
": 	c #867528",
"< 	c #918029",
"[ 	c #B7A623",
"} 	c #E3D017",
"| 	c #F1DE10",
"1 	c #EFDC11",
"2 	c #E3D016",
"3 	c #B7A622",
"4 	c #918028",
"5 	c #6D5C2B",
"6 	c #C1B020",
"7 	c #E7D414",
"8 	c #EDDA12",
"9 	c #6E5B2D",
"0 	c #42242F",
"a 	c #3B172F",
"b 	c #2E0030",
"c 	c #2B0030",
"d 	c #2C0030",
"e 	c #18002F",
"f 	c #68562C",
"g 	c #C8B71E",
"h 	c #F0DD10",
"i 	c #68562D",
"j 	c #180030",
"k 	c #2B0031",
"l 	c #290031",
"m 	c #2A0031",
"n 	c #2D0031",
"o 	c #391330",
"p 	c #412230",
"q 	c #42262E",
"r 	c #5D472B",
"s 	c #776328",
"t 	c #7B6929",
"u 	c #7A682B",
"v 	c #7B692B",
"w 	c #76632B",
"x 	c #8F7E28",
"y 	c #CFBE1C",
"z 	c #EEDC11",
"A 	c #8F7D28",
"B 	c #76632C",
"C 	c #7A682C",
"D 	c #7B682A",
"E 	c #766329",
"F 	c #5C462D",
"G 	c #412430",
"H 	c #422A2A",
"I 	c #8F7D24",
"J 	c #C8B41A",
"K 	c #D2BE1A",
"L 	c #CFBD1C",
"M 	c #D0BE1D",
"N 	c #D1BE1D",
"O 	c #D0BE1C",
"P 	c #D5C21B",
"Q 	c #E5D215",
"R 	c #EFDB11",
"S 	c #D0BD1D",
"T 	c #D1BD1D",
"U 	c #C8B41C",
"V 	c #8E7D28",
"W 	c #43282E",
"X 	c #442D2C",
"Y 	c #A69968",
"Z 	c #EADC8C",
"` 	c #F4E46B",
" .	c #EFDD1D",
"..	c #F0DC04",
"+.	c #F0DC11",
"@.	c #F0DC10",
"#.	c #F0DC05",
"$.	c #F0DC1F",
"%.	c #F5E36B",
"&.	c #EBDC8C",
"*.	c #A69869",
"=.	c #432B30",
"-.	c #462C31",
";.	c #A79F96",
">.	c #EBE4CD",
",.	c #F4E7A0",
"'.	c #EEDB36",
").	c #EEDB02",
"!.	c #EFDC10",
"~.	c #EFDB02",
"{.	c #EEDA36",
"].	c #F5E5A0",
"^.	c #EDE3CD",
"/.	c #A89E96",
"(.	c #432B32",
"_.	c #452930",
":.	c #997E79",
"<.	c #D9B8A6",
"[.	c #E6C590",
"}.	c #E8C95C",
"|.	c #ECD424",
"1.	c #EFDA00",
"2.	c #EFDC07",
"3.	c #EFDC12",
"4.	c #EFDC06",
"5.	c #EFDB00",
"6.	c #ECD41D",
"7.	c #E8C955",
"8.	c #E7C48E",
"9.	c #DAB8A6",
"0.	c #9A7E78",
"a.	c #44282E",
"b.	c #44262C",
"c.	c #854A2E",
"d.	c #B76D3C",
"e.	c #CE8D5F",
"f.	c #DFAF72",
"g.	c #ECD170",
"h.	c #F1DE5C",
"i.	c #EFDD2E",
"j.	c #EFDC08",
"k.	c #F1DF5C",
"l.	c #ECD26D",
"m.	c #DEB06B",
"n.	c #CE8E58",
"o.	c #B76D3A",
"p.	c #85492D",
"q.	c #44252A",
"r.	c #693017",
"s.	c #834217",
"t.	c #AE622C",
"u.	c #D59B75",
"v.	c #F0DCC0",
"w.	c #F7EEBA",
"x.	c #F0E05D",
"y.	c #EEDB00",
"z.	c #D49B72",
"A.	c #AD6226",
"B.	c #834216",
"C.	c #693016",
"D.	c #552D27",
"E.	c #8B4000",
"F.	c #B67C65",
"G.	c #DEC4BD",
"H.	c #EFDFBA",
"I.	c #EEDD5D",
"J.	c #EEDC00",
"K.	c #EEDC5D",
"L.	c #B57C64",
"M.	c #8A4000",
"N.	c #542628",
"O.	c #7C4A3F",
"P.	c #B87A60",
"Q.	c #DAAB5C",
"R.	c #EAD32E",
"S.	c #EFDD08",
"T.	c #D9AB5C",
"U.	c #B77B60",
"V.	c #7C4B3D",
"W.	c #542625",
"X.	c #753724",
"Y.	c #BB5B00",
"Z.	c #D79800",
"`.	c #EAD005",
" +	c #EFDD12",
".+	c #BA5D00",
"++	c #763820",
"@+	c #C36506",
"#+	c #D39808",
"$+	c #E9CF0F",
"%+	c #EFDD11",
"&+	c #EFDC0F",
"*+	c #EFDC0E",
"=+	c #F0DD11",
"-+	c #D39908",
";+	c #C36605",
">+	c #803912",
",+	c #AD8A12",
"'+	c #E2CE10",
")+	c #F0DE10",
"!+	c #EFDC00",
"~+	c #F1DE11",
"{+	c #E3CE11",
"]+	c #AD8A11",
"^+	c #803911",
"/+	c #938615",
"(+	c #B6A70A",
"_+	c #E3D200",
":+	c #F0DD00",
"<+	c #EFDB03",
"[+	c #EFDB05",
"}+	c #EFDC19",
"|+	c #F1E164",
"1+	c #F3E687",
"2+	c #F0E164",
"3+	c #EDDC18",
"4+	c #EEDB04",
"5+	c #E4D200",
"6+	c #B6A80B",
"7+	c #928715",
"8+	c #E9D90C",
"9+	c #ECDB1D",
"0+	c #EEDD2F",
"a+	c #EFDD33",
"b+	c #EFDC2F",
"c+	c #EDD81D",
"d+	c #EBD400",
"e+	c #EBD524",
"f+	c #F2E4A0",
"g+	c #F8F2D6",
"h+	c #F1E5A0",
"i+	c #E9D624",
"j+	c #EAD400",
"k+	c #ECD71D",
"l+	c #F0DD33",
"m+	c #EFDD2F",
"n+	c #ECDD1F",
"o+	c #E9DC11",
"p+	c #978900",
"q+	c #E8D500",
"r+	c #FAE968",
"s+	c #F8EDAA",
"t+	c #F8F0BB",
"u+	c #F4E8AD",
"v+	c #E3C671",
"w+	c #D7AB00",
"x+	c #D6AC18",
"y+	c #DEBB88",
"z+	c #E6C9B7",
"A+	c #DEBC88",
"B+	c #D5AD18",
"C+	c #D6AB00",
"D+	c #E2C671",
"E+	c #F8EEAA",
"F+	c #FAEA68",
"G+	c #E8D700",
"H+	c #978A00",
"I+	c #000014",
"J+	c #73662D",
"K+	c #D2BF4F",
"L+	c #F6E59D",
"M+	c #F8EFDD",
"N+	c #FAF4EF",
"O+	c #F3E7DE",
"P+	c #D6A992",
"Q+	c #BF6703",
"R+	c #BC6500",
"S+	c #BE6D2F",
"T+	c #C07242",
"U+	c #BF6E2F",
"V+	c #BD6700",
"W+	c #BE6903",
"X+	c #D5AA92",
"Y+	c #F2E7DE",
"Z+	c #F8F0DD",
"`+	c #F6E69E",
" @	c #D2C050",
".@	c #73672C",
"+@	c #000010",
"@@	c #000000",
"#@	c #766E60",
"$@	c #D7CFB3",
"%@	c #F3E1C6",
"&@	c #E2BEAD",
"*@	c #DDB3A6",
"=@	c #DAAC9C",
"-@	c #CC8565",
";@	c #C15F02",
">@	c #BC5C00",
",@	c #A65007",
"'@	c #8E420B",
")@	c #A85007",
"!@	c #BE5D00",
"~@	c #C06105",
"{@	c #CB8566",
"]@	c #E2BFAD",
"^@	c #F3E3C7",
"/@	c #D7D1B6",
"(@	c #766F61",
"_@	c #75696A",
":@	c #D2C4C0",
"<@	c #E7C8BD",
"[@	c #CE855D",
"}@	c #C66500",
"|@	c #C4680B",
"1@	c #B8610F",
"2@	c #AF5C13",
"3@	c #AA5917",
"4@	c #8F4A23",
"5@	c #65332D",
"6@	c #914A25",
"7@	c #AC591B",
"8@	c #AE5C17",
"9@	c #B66112",
"0@	c #C4670C",
"a@	c #C66400",
"b@	c #CE855E",
"c@	c #E7CABF",
"d@	c #D1C5C2",
"e@	c #756A6A",
"f@	c #12002F",
"g@	c #684647",
"h@	c #B7806C",
"i@	c #CF8967",
"j@	c #C56E2C",
"k@	c #C36400",
"l@	c #BA6100",
"m@	c #924C1A",
"n@	c #6E3A27",
"o@	c #6D392B",
"p@	c #69372D",
"q@	c #6A3631",
"r@	c #6E392F",
"s@	c #6D3A2A",
"t@	c #924C1D",
"u@	c #BB6000",
"v@	c #C46300",
"w@	c #C56D2D",
"x@	c #CE8A68",
"y@	c #B5826C",
"z@	c #674744",
"A@	c #0F0027",
"B@	c #1B1439",
"C@	c #64312F",
"D@	c #AD5400",
"E@	c #BC5D00",
"F@	c #A45414",
"G@	c #9C521C",
"H@	c #98501D",
"I@	c #763E24",
"J@	c #381F2D",
"K@	c #3D2131",
"L@	c #3B2135",
"M@	c #372130",
"N@	c #753D27",
"O@	c #984E1F",
"P@	c #9D511E",
"Q@	c #A45415",
"R@	c #BA5E00",
"S@	c #AA5500",
"T@	c #62312A",
"U@	c #1A1534",
"V@	c #1E1232",
"W@	c #61312C",
"X@	c #A65619",
"Y@	c #AA5814",
"Z@	c #723926",
"`@	c #55292A",
" #	c #592C2A",
".#	c #582C2C",
"+#	c #542A2C",
"@#	c #703927",
"##	c #A85715",
"$#	c #A45518",
"%#	c #60302B",
"&#	c #1F1131",
"*#	c #270F24",
"=#	c #482121",
"-#	c #753A17",
";#	c #7F3F16",
">#	c #7D3F15",
",#	c #743916",
"'#	c #482120",
")#	c #270E23",
"!#	c #2C0C17",
"~#	c #2D0D17",
"{#	c #300F17",
"]#	c #311017",
"^#	c #321014",
"/#	c #300F14",
"(#	c #2D0D14",
"_#	c #2C0C15",
"                            .                             ",
"                          + @ +                           ",
"                        # $ % & *                         ",
"                        = - ; > ,                         ",
"                        ' ) ! ~ {                         ",
"                      ] ^ / ( _ ^ :                       ",
"                    < [ } | 1 | 2 3 4                     ",
"                  5 6 7 8 1 1 1 8 7 6 9                   ",
"0 a b c d d c d e f g h h 1 1 1 h h g i j k l m m l n o p ",
"q r s t u u v v w x y z 1 1 1 1 1 z y A B C C C C D E F G ",
"H I J K L M N N O P Q R 1 1 1 1 1 R Q P S T T T T K U V W ",
"X Y Z `  ...+.@.@.@.1 R 1 1 1 1 1 R R @.@.@.@.#.$.%.&.*.=.",
"-.;.>.,.'.).!.1 1 1 1 1 1 1 1 1 1 1 1 1 1 1 !.~.{.].^./.(.",
"_.:.<.[.}.|.1.2.3.1 1 1 1 1 1 1 1 1 1 1 3.4.5.6.7.8.9.0.a.",
"b.c.d.e.f.g.h.i.j.1 1 1 1 1 1 1 1 1 1 1 j.i.k.l.m.n.o.p.q.",
"  r.s.t.u.v.w.x.y.1 1 1 1 1 1 1 1 1 1 1 y.x.w.v.z.A.B.C.  ",
"    D.E.F.G.H.I.J.1 1 1 1 1 1 1 1 1 1 1 J.K.H.G.L.M.D.    ",
"      N.O.P.Q.R.S.1 1 1 1 1 1 1 1 1 1 1 S.R.T.U.V.W.      ",
"        X.Y.Z.`. +1 1 1 1 1 1 1 1 1 1 1  +`.Z..+++        ",
"          @+#+$+%+1 1 1 1 &+*+&+1 1 1 1 =+$+-+;+          ",
"          >+,+'+)+1 1 1 !.!+!+!+&+!.1 1 ~+{+]+^+          ",
"          /+(+_+:+!+<+[+}+|+1+2+3+4+~.5.:+5+6+7+          ",
"          8+9+0+a+b+c+d+e+f+g+h+i+j+k+b+l+m+n+o+          ",
"        p+q+r+s+t+u+v+w+x+y+z+A+B+C+D+u+t+E+F+G+H+        ",
"      I+J+K+L+M+N+O+P+Q+R+S+T+U+V+W+X+Y+N+Z+`+ @.@+@      ",
"      @@#@$@%@&@*@=@-@;@>@,@'@)@!@~@{@=@*@]@^@/@(@@@      ",
"      @@_@:@<@[@}@|@1@2@3@4@5@6@7@8@9@0@a@b@c@d@e@@@      ",
"      f@g@h@i@j@k@l@m@n@o@p@  q@r@s@t@u@v@w@x@y@z@A@      ",
"      B@C@D@E@F@G@H@I@J@K@      L@M@N@O@P@Q@R@S@T@U@      ",
"      V@W@X@Y@Z@`@ #                  .#+#@###$#%#&#      ",
"      *#=#-#;#                              >#,#'#)#      ",
"      !#~#{#]#                              ^#/#(#_#      "};
