/* XPM */
static char * tree_xpm[] = {
"32 32 393 2",
"  	c #4E6338",
". 	c #4B5F36",
"+ 	c #445532",
"@ 	c #3E4D2E",
"# 	c #3A472B",
"$ 	c #3D4B2D",
"% 	c #465732",
"& 	c #4D6237",
"* 	c #4D6238",
"= 	c #4C6036",
"- 	c #485B34",
"; 	c #435430",
"> 	c #3F4F2D",
", 	c #3E4C2B",
"' 	c #3F4E2C",
") 	c #445430",
"! 	c #485A34",
"~ 	c #4E6238",
"{ 	c #475933",
"] 	c #445530",
"^ 	c #43542D",
"/ 	c #44562C",
"( 	c #47592C",
"_ 	c #46572C",
": 	c #41512C",
"< 	c #42532F",
"[ 	c #4C6037",
"} 	c #4B6036",
"| 	c #475A34",
"1 	c #415230",
"2 	c #43562F",
"3 	c #4D6430",
"4 	c #587232",
"5 	c #617E34",
"6 	c #5D7832",
"7 	c #4A612E",
"8 	c #3F512D",
"9 	c #435531",
"0 	c #465933",
"a 	c #405130",
"b 	c #3B4D2D",
"c 	c #475F30",
"d 	c #5D7D36",
"e 	c #70953B",
"f 	c #7EA63F",
"g 	c #799F3D",
"h 	c #5C7B36",
"i 	c #42592F",
"j 	c #3C4D2D",
"k 	c #40502F",
"l 	c #495D35",
"m 	c #4A5E35",
"n 	c #3A4A2D",
"o 	c #3A4E2D",
"p 	c #4D6A32",
"q 	c #678D3B",
"r 	c #7BA642",
"s 	c #89B645",
"t 	c #83AF44",
"u 	c #688F3D",
"v 	c #4D6C34",
"w 	c #3A4E2A",
"x 	c #39472A",
"y 	c #485B35",
"z 	c #3D4C2E",
"A 	c #38482B",
"B 	c #3E552E",
"C 	c #537436",
"D 	c #6C973F",
"E 	c #7CAB45",
"F 	c #84B447",
"G 	c #81B046",
"H 	c #709E43",
"I 	c #5A823B",
"J 	c #3E572B",
"K 	c #344127",
"L 	c #455832",
"M 	c #445632",
"N 	c #38472B",
"O 	c #36492B",
"P 	c #415E31",
"Q 	c #567C3A",
"R 	c #6D9A42",
"S 	c #79AA46",
"T 	c #7EAF47",
"U 	c #7CAD47",
"V 	c #72A346",
"W 	c #5F8C3F",
"X 	c #41602F",
"Y 	c #304228",
"Z 	c #3F502F",
"` 	c #485C34",
" .	c #4D6137",
"..	c #455732",
"+.	c #3C4D2E",
"@.	c #32442A",
"#.	c #344F2D",
"$.	c #426736",
"%.	c #56813E",
"&.	c #699943",
"*.	c #74A646",
"=.	c #78AA47",
"-.	c #76A847",
";.	c #6D9F46",
">.	c #5D8C41",
",.	c #436936",
"'.	c #2F4B2C",
").	c #324329",
"!.	c #3C4C2D",
"~.	c #34452B",
"{.	c #2F472C",
"].	c #375832",
"^.	c #46713B",
"/.	c #568541",
"(.	c #649544",
"_.	c #70A247",
":.	c #6EA047",
"<.	c #679946",
"[.	c #5B8B43",
"}.	c #48753C",
"|.	c #365C33",
"1.	c #2B4229",
"2.	c #303D27",
"3.	c #4C6137",
"4.	c #3F4F2F",
"5.	c #324129",
"6.	c #2C4029",
"7.	c #314F30",
"8.	c #3D6438",
"9.	c #4B7A3F",
"0.	c #568944",
"a.	c #5E9145",
"b.	c #639646",
"c.	c #659846",
"d.	c #649746",
"e.	c #609246",
"f.	c #598B45",
"g.	c #4F8142",
"h.	c #416D3B",
"i.	c #2E4D2F",
"j.	c #263627",
"k.	c #2F3C27",
"l.	c #3C4B2D",
"m.	c #39482C",
"n.	c #2C3A27",
"o.	c #28402A",
"p.	c #325633",
"q.	c #3F6B3B",
"r.	c #4C7E41",
"s.	c #558945",
"t.	c #5A8D46",
"u.	c #5D9046",
"v.	c #5E9146",
"w.	c #5B8E46",
"x.	c #578A45",
"y.	c #508444",
"z.	c #44743E",
"A.	c #315834",
"B.	c #233E2A",
"C.	c #233023",
"D.	c #333F27",
"E.	c #465833",
"F.	c #4A5E36",
"G.	c #425331",
"H.	c #37472B",
"I.	c #2A3C27",
"J.	c #27452C",
"K.	c #315C36",
"L.	c #3D6E3D",
"M.	c #487C41",
"N.	c #518544",
"O.	c #548845",
"P.	c #4A7E42",
"Q.	c #3E723E",
"R.	c #336239",
"S.	c #284E30",
"T.	c #213523",
"U.	c #2F3A24",
"V.	c #36462B",
"W.	c #2A3E28",
"X.	c #28492D",
"Y.	c #306037",
"Z.	c #3A6E3D",
"`.	c #427740",
" +	c #497E42",
".+	c #4F8343",
"++	c #528544",
"@+	c #4D8042",
"#+	c #396F3E",
"$+	c #34683C",
"%+	c #2C5834",
"&+	c #213924",
"*+	c #2E3923",
"=+	c #455631",
"-+	c #2B3F28",
";+	c #284A2E",
">+	c #306138",
",+	c #366C3D",
"'+	c #3A703E",
")+	c #3D733F",
"!+	c #40753F",
"~+	c #41763F",
"{+	c #417640",
"]+	c #3F743F",
"^+	c #366D3D",
"/+	c #346A3D",
"(+	c #2D5C35",
"_+	c #223C25",
":+	c #26472C",
"<+	c #2E5C37",
"[+	c #33683C",
"}+	c #346B3D",
"|+	c #356C3D",
"1+	c #356D3D",
"2+	c #33693C",
"3+	c #31643B",
"4+	c #2B5533",
"5+	c #213824",
"6+	c #36442A",
"7+	c #273725",
"8+	c #223D29",
"9+	c #295233",
"0+	c #2F6039",
"a+	c #32683C",
"b+	c #31653B",
"c+	c #2B5636",
"d+	c #23442D",
"e+	c #1E2E21",
"f+	c #35432A",
"g+	c #263324",
"h+	c #1F3527",
"i+	c #244730",
"j+	c #2A5536",
"k+	c #2E5E38",
"l+	c #30623A",
"m+	c #2C5A37",
"n+	c #254A32",
"o+	c #1E372A",
"p+	c #1C271F",
"q+	c #273324",
"r+	c #1E3125",
"s+	c #213E2D",
"t+	c #244631",
"u+	c #264B32",
"v+	c #274D33",
"w+	c #274E33",
"x+	c #22412F",
"y+	c #1E3529",
"z+	c #2E3A24",
"A+	c #435431",
"B+	c #2A3625",
"C+	c #202F24",
"D+	c #1F3529",
"E+	c #203A2C",
"F+	c #203D2D",
"G+	c #213E2E",
"H+	c #213F2E",
"I+	c #203C2D",
"J+	c #1F382A",
"K+	c #203226",
"L+	c #242F22",
"M+	c #334027",
"N+	c #465832",
"O+	c #4B5E36",
"P+	c #455733",
"Q+	c #303C27",
"R+	c #253023",
"S+	c #203024",
"T+	c #1E3327",
"U+	c #20382A",
"V+	c #223B2C",
"W+	c #233C2C",
"X+	c #243D2C",
"Y+	c #233D2C",
"Z+	c #223C2C",
"`+	c #213B2C",
" @	c #1F3629",
".@	c #1D2D23",
"+@	c #232E22",
"@@	c #2E3926",
"#@	c #3B492C",
"$@	c #495C35",
"%@	c #344028",
"&@	c #2C3524",
"*@	c #252F23",
"=@	c #212F23",
"-@	c #233325",
";@	c #273626",
">@	c #323C26",
",@	c #353D26",
"'@	c #333C26",
")@	c #2E3A26",
"!@	c #283726",
"~@	c #223527",
"{@	c #213125",
"]@	c #232E21",
"^@	c #2B3322",
"/@	c #344029",
"(@	c #3D4B2E",
"_@	c #3A482C",
":@	c #37432A",
"<@	c #323D27",
"[@	c #2B3423",
"}@	c #272D20",
"|@	c #282B1E",
"1@	c #302D1C",
"2@	c #3C341C",
"3@	c #45391C",
"4@	c #493C1C",
"5@	c #463A1C",
"6@	c #312E1C",
"7@	c #26291D",
"8@	c #252D20",
"9@	c #2E3825",
"0@	c #343F28",
"a@	c #37442A",
"b@	c #3D4D2E",
"c@	c #4A5D35",
"d@	c #38452B",
"e@	c #354129",
"f@	c #303824",
"g@	c #2D2F1F",
"h@	c #2F2919",
"i@	c #392C15",
"j@	c #483615",
"k@	c #523D16",
"l@	c #584217",
"m@	c #554017",
"n@	c #3A2C15",
"o@	c #2D2516",
"p@	c #2B2E1D",
"q@	c #343E27",
"r@	c #39472C",
"s@	c #374229",
"t@	c #343B25",
"u@	c #333420",
"v@	c #362F19",
"w@	c #413316",
"x@	c #513E18",
"y@	c #5C471A",
"z@	c #634D1C",
"A@	c #5F4A1B",
"B@	c #513D17",
"C@	c #423115",
"D@	c #362C18",
"E@	c #31331F",
"F@	c #363F27",
"G@	c #363A23",
"H@	c #38351D",
"I@	c #43381B",
"J@	c #52431D",
"K@	c #5E4C20",
"L@	c #655322",
"M@	c #614F21",
"N@	c #52411B",
"O@	c #43361A",
"P@	c #39351D",
"Q@	c #353922",
"R@	c #374128",
"S@	c #38442B",
"T@	c #38432A",
"U@	c #373F27",
"V@	c #3F3C21",
"W@	c #4D4523",
"X@	c #584D25",
"Y@	c #605428",
"Z@	c #5C5026",
"`@	c #4B4221",
" #	c #3D391F",
".#	c #383C23",
"+#	c #374027",
"@#	c #374329",
"##	c #3B4026",
"$#	c #454527",
"%#	c #4E4B29",
"&#	c #55512B",
"*#	c #524E29",
"=#	c #434225",
"-#	c #393D24",
";#	c #39462B",
">#	c #3C4A2D",
",#	c #425231",
"'#	c #415130",
")#	c #394329",
"!#	c #3D452A",
"~#	c #41472A",
"{#	c #44492B",
"]#	c #42482B",
"^#	c #3C4429",
"/#	c #384229",
"(#	c #38442A",
"_#	c #3B4A2D",
":#	c #455633",
"                          . + @ # $ % . &                       ",
"                      * = - ; > , ' ) ! = ~                     ",
"                      = { ] ^ / ( _ : < - [ ~                   ",
"                  * } | 1 2 3 4 5 6 7 8 9 - [                   ",
"                  } 0 a b c d e f g h i j k l                   ",
"                  m 1 n o p q r s t u v w x |                   ",
"                  y z A B C D E F G H I J K L                   ",
"              * . M N O P Q R S T U V W X Y Z `  .              ",
"              . ..+.@.#.$.%.&.*.=.-.;.>.,.'.).!.-               ",
"          * [ 0 z ~.{.].^./.(.;._.:.<.[.}.|.1.2.Z ` 3.          ",
"          [ | 4.5.6.7.8.9.0.a.b.c.d.e.f.g.h.i.j.k.l.`           ",
"          . + m.n.o.p.q.r.s.t.u.v.u.w.x.y.z.A.B.C.D.E.          ",
"          F.G.H.I.J.K.L.M.N.x.t.w.t.t.O.P.Q.R.S.T.U...          ",
"          m 1 V.W.X.Y.Z.`. +.+++++++++@+`.#+$+%+&+*+=+          ",
"          m 1 V.-+;+>+,+'+)+!+~+~+{+~+]+'+^+/+(+_+*+=+          ",
"          m 1 V.I.:+<+[+}+|+1+^+^+^+^+1+|+2+3+4+5+*+=+          ",
"          m 1 6+7+8+9+0+a+}+}+}+}+}+}+}+}+b+c+d+e+*+..          ",
"          m 1 f+g+h+i+j+k+l+l+l+l+l+l+l+l+m+n+o+p+*+..          ",
"          m 1 6+q+r+s+t+u+v+v+v+v+v+v+w+v+n+x+y+p+z+..          ",
"          F.A+N B+C+D+E+F+G+G+H+H+H+G+G+G+I+J+K+L+M+N+~         ",
"        & O+P+!.Q+R+S+T+U+V+W+X+X+X+Y+Z+`+ @.@+@@@#@0 3.        ",
"      ~ [ $@M z %@&@*@=@-@;@@@>@,@'@)@!@~@{@]@^@/@(@+ $@3.      ",
"      & O+E.4._@:@<@[@}@|@1@2@3@4@5@2@6@7@8@9@0@a@_@b@9 F.      ",
"       .c@M $ d@d@e@f@g@h@i@j@k@l@m@j@n@o@p@q@d@d@d@r@k l       ",
"       .c@M l.d@d@s@t@u@v@w@x@y@z@A@B@C@D@E@F@d@d@d@r@k l       ",
"       .c@M l.d@d@:@F@G@H@I@J@K@L@M@N@O@P@Q@R@d@d@d@r@k l       ",
"       .c@M $ d@d@S@T@U@G@V@W@X@Y@Z@`@ #.#+#:@d@d@d@r@k l       ",
"       .m ..@ r@d@d@d@@#F@##$#%#&#*#=#-#R@a@d@d@d@;#>#,#F.      ",
"      & . | '#l.r@d@d@S@:@)#!#~#{#]#^#/#(#d@d@d@;##@4.P+.       ",
"      ~ 3.c@..'#z _#_#_#_#_#_#_#_#_#_#_#_#_#_#>#l.4.M $@3.      ",
"        * [ c@0 A+1 1 1 1 1 1 1 1 1 1 1 1 1 1 1 G.:#l 3.*       ",
"          * [ l E.M M M M M M M M M M M M M M M P+| [           "};
